<?xml version="1.0" encoding="utf-8"?>
<!-- Generated by IcoMoon.io -->
<!DOCTYPE svg PUBLIC "-//W3C//DTD SVG 1.1//EN" "http://www.w3.org/Graphics/SVG/1.1/DTD/svg11.dtd">
<svg version="1.1" xmlns="http://www.w3.org/2000/svg" xmlns:xlink="http://www.w3.org/1999/xlink" width="80" height="32" viewBox="0 0 80 32">
<g transform="translate(0 0)">
	<path d="M16 0c8.837 0 16 7.163 16 16 0 8.159-6.107 14.892-14 15.876v-11.876h5.5l0.5-4h-6v-2c0-1.105 0.895-2 2-2h4v-4h-4c-3.314 0-6 2.686-6 6v2h-3v4h3v7.906 3.59 0.38c-7.893-0.984-14-7.717-14-15.876 0-8.837 7.163-16 16-16z" />
</g>
<g transform="translate(48 0)">
	<path d="M16 0c-8.837 0-16 7.163-16 16s7.163 16 16 16 16-7.163 16-16-7.163-16-16-16zM8 8h16c0.286 0 0.563 0.061 0.817 0.177l-8.817 10.286-8.817-10.287c0.254-0.116 0.531-0.177 0.817-0.177zM6 22v-12c0-0.042 0.002-0.084 0.004-0.125l5.864 6.842-5.8 5.8c-0.045-0.167-0.069-0.34-0.069-0.517zM24 24h-16c-0.177 0-0.35-0.024-0.517-0.069l5.691-5.691 2.826 3.297 2.826-3.297 5.691 5.691c-0.167 0.045-0.34 0.069-0.517 0.069zM26 22c0 0.177-0.024 0.35-0.069 0.517l-5.8-5.8 5.865-6.842c0.003 0.041 0.004 0.083 0.004 0.125v12z" />
</g>
</svg>
